# xmcd
#
# Track frame offsets:
#	150
#	11780
#	24197
#	37987
#	51159
#	63625
#	79816
#	91212
#	102948
#	121890
#	137488
#	148511
#	158325
#	171192
#	188171
#	200506
#	219894
#	233436
#	246592
#	259661
#
# Disc length: 3615 seconds
#
# Revision: 1
# Processed by: cddbd v1.5.2PL0 Copyright (c) Steve Scherf et al.
# Submitted via: audiograbber 1.83.01
#
DISCID=040e1d14
DTITLE=Kevin Shegog - Kevin Shegog
DYEAR=1900
DGENRE=Country
TTITLE0=One Small Photograph
TTITLE1=Little Kangaroo
TTITLE2=Its all in the Bag
TTITLE3=Cops and Robbers
TTITLE4=Little Frisco
TTITLE5=Little Sister Laura
TTITLE6=Dont Bug The Beetles
TTITLE7=Wayward Rambler
TTITLE8=Knoxville Girl
TTITLE9=The Black Lagoon
TTITLE10=Knocks Out Of Life
TTITLE11=The Kid From Bendigo
TTITLE12=Melbourne Airport Tullamarine
TTITLE13=The Modern Living Scene
TTITLE14=The Old Arm Chair
TTITLE15=Good Morning Darlin
TTITLE16=Greyhound Blues
TTITLE17=John William Able
TTITLE18=When The Stranger Walked In
TTITLE19=Wealthy John
EXTD=All compositions by Kevin Shegog
EXTT0=
EXTT1=
EXTT2=
EXTT3=
EXTT4=
EXTT5=
EXTT6=
EXTT7=
EXTT8=
EXTT9=
EXTT10=
EXTT11=
EXTT12=
EXTT13=
EXTT14=
EXTT15=
EXTT16=
EXTT17=
EXTT18=
EXTT19=
PLAYORDER=
